<svg class="image-colors-logo" width="256" height="256" viewBox="0 0 256 256" fill="none" xmlns="http://www.w3.org/2000/svg">
    <path d="M0 32C0 14.3269 14.3269 0 32 0H224C241.673 0 256 14.3269 256 32V224C256 241.673 241.673 256 224 256H32C14.3269 256 0 241.673 0 224V32Z" fill="#FF0099"/>
    <path d="M208 128C208 128.281 208 128.563 208 128.844C207.875 140.25 197.5 148 186.094 148H155.5C147.219 148 140.5 154.719 140.5 163C140.5 164.063 140.625 165.094 140.813 166.094C141.469 169.281 142.844 172.344 144.187 175.437C146.094 179.75 147.969 184.031 147.969 188.562C147.969 198.5 141.219 207.531 131.281 207.937C130.188 207.969 129.094 208 127.969 208C83.7813 208 47.9688 172.187 47.9688 128C47.9688 83.8125 83.8125 48 128 48C172.188 48 208 83.8125 208 128ZM88 138C88 132.469 83.5312 128 78 128C72.4687 128 68 132.469 68 138C68 143.531 72.4687 148 78 148C83.5312 148 88 143.531 88 138ZM88 108C93.5313 108 98 103.531 98 98C98 92.4687 93.5313 88 88 88C82.4688 88 78 92.4687 78 98C78 103.531 82.4688 108 88 108ZM138 78C138 72.4687 133.531 68 128 68C122.469 68 118 72.4687 118 78C118 83.5313 122.469 88 128 88C133.531 88 138 83.5313 138 78ZM168 108C173.531 108 178 103.531 178 98C178 92.4687 173.531 88 168 88C162.469 88 158 92.4687 158 98C158 103.531 162.469 108 168 108Z" fill="white"/>
</svg>